<svg version="1.0" xmlns="http://www.w3.org/2000/svg" xmlns:xlink="http://www.w3.org/1999/xlink"
	width="100%" height="100%" viewBox="0 0 300 300" preserveAspectRatio="xMinYMin">
	<defs>
		<path id="symbol" d="M286.4,163.6h-99.8c-7.5,0-13.6-6.1-13.6-13.6c0-7.5,6.1-13.6,13.6-13.6h99.8L250,100l50-50L250,0l-50,50L150,0l-50,50L50,0
		L0,50l50,50L0,150l50,50L0,250l50,50l50-50l50,50l50-50l50,50l50-50l-50-50L286.4,163.6z M150,221.6c-39.5,0-71.6-32.1-71.6-71.6
		c0-39.5,32.1-71.6,71.6-71.6c30.7,0,56.9,19.4,67,46.6c0,0-30.5,0-30.6,0c-8-11.6-21.3-19.3-36.4-19.3c-24.4,0-44.3,19.9-44.3,44.3
		c0,24.4,19.9,44.3,44.3,44.3c15.1,0,28.4-7.7,36.4-19.3c0.1,0,30.6,0,30.6,0C206.8,202.2,180.7,221.6,150,221.6z" />
	</defs>
	<use fill="white" y="4" xlink:href="#symbol" />
	<use fill="black" xlink:href="#symbol" />
</svg>
