<?xml version="1.0" encoding="utf-8"?>
<svg version="1.0" xmlns="http://www.w3.org/2000/svg"
	width="224" height="96" viewBox="0 0 224 96">
<desc>Made with care and chainvas</desc>
<defs>
	<filter id="dropshadow" height="120%">
		<feGaussianBlur in="SourceAlpha" stdDeviation="2" /> 
		<feOffset dx="0" dy="1" result="offsetblur" /> 
		
		<feMerge> 
			<feMergeNode />
			<feMergeNode in="SourceGraphic"/> 
		</feMerge>
 	</filter>
</defs>
<path opacity="0.8" d="M221,51h-22h-0.5c-1.7,0-3-1.3-3-3c0-1.6,1.3-3,3-3h0.5h22l-13-13l16-16L208,0
	l-16,16L176,0l-16,16L144,0l-16,16L112,0L96,16L80,0L64,16L48,0L32,16L16,0L0,16l16,16L0,48l16,16L0,80l16,16l16-16l16,16l16-16
	l16,16l16-16l16,16l16-16l16,16l16-16l16,16l16-16l16,16l16-16l-16-16L221,51z M191,63.8c-0.1,0-0.2,0-0.3,0c-0.1,0-0.2,0-0.3,0
	c-8.7,0-15.8-7.1-15.8-15.8s7.1-15.8,15.8-15.8c0.1,0,0.2,0,0.3,0c0.1,0,0.2,0,0.3,0c6.8,0,12.5,4.3,14.7,10.3h-0.6H199h-0.6
	c-1.7-2.5-4.5-4.2-7.7-4.3c-5.2,0.2-9.5,4.5-9.5,9.8c0,5.3,4.2,9.6,9.5,9.8c3.2-0.1,6.1-1.8,7.7-4.2h0.5c0,0,0.1-0.1,0.1-0.1h6.7
	C203.5,59.5,197.8,63.8,191,63.8z"/>
<g fill="white" filter="url(#dropshadow)">
<path d="M26.6,41.8l5.9-13c0.1-0.3,0.2-0.5,0.2-0.8s-0.2-0.5-0.6-0.5c-0.7,0-1.3,0.3-1.7,1s-0.6,1.5-0.6,2.3
	c0,0.2,0,0.4,0,0.6c-0.3,0-0.6-0.2-0.7-0.5c-0.2-0.3-0.2-0.7-0.2-1c0-0.8,0.4-1.5,1.2-2.2c0.8-0.6,1.6-1,2.4-1
	c0.6,0,1.1,0.3,1.4,0.9c0.3,0.6,0.4,1.7,0.4,3.3c0,0.9-0.1,2.2-0.2,4c-0.1,1.8-0.2,2.9-0.2,3.3c0.3-1.1,0.8-2.5,1.7-4.1
	c0.8-1.6,1.5-2.9,2.1-3.9c0.6-1,1.1-1.8,1.5-2.4c0.1-0.2,0.2-0.3,0.3-0.4s0.2-0.2,0.3-0.2c0.1-0.1,0.2-0.1,0.4-0.1
	c0.2,0,0.4,0,0.6,0.1c-0.3,0.7-0.6,1.6-0.8,2.6c-0.3,1.6-0.7,3.5-1.1,5.6s-0.6,3.7-0.6,4.9c0,0.2,0,0.4,0,0.5c0,0.1,0,0.2,0,0.3
	s0,0.2,0.1,0.3s0.1,0.3,0.1,0.4c-0.6,0-1-0.1-1.2-0.4c-0.2-0.3-0.3-0.8-0.3-1.6c0-0.9,0.1-2,0.4-3.2c0.3-1.2,0.5-2.2,0.7-3.1
	l0.8-3.7c-0.8,1-1.7,2.6-2.7,4.9c-1,2.2-1.8,4.1-2.3,5.5c-0.1,0-0.2,0.1-0.3,0.1c-0.3,0-0.5-0.2-0.6-0.5c-0.1-0.4-0.2-0.9-0.2-1.7
	c0-0.7,0-2,0.1-4s0.1-3.3,0.1-3.9c0-0.3,0-0.7,0-1l-1.2,2.9l-1,2.5l-0.9,2.1l-0.7,1.7l-0.6,1.4c-0.2,0.4-0.4,0.8-0.5,1
	c-0.1,0.3-0.3,0.5-0.5,0.7c-0.2,0.2-0.3,0.4-0.5,0.4C26.9,41.8,26.7,41.8,26.6,41.8z"/>
<path d="M40.1,39.6c0-0.7,0.3-1.5,0.8-2.4c0.5-0.9,1.2-1.7,2-2.3c0.8-0.6,1.6-1,2.4-1c0.5,0,0.9,0.1,1.2,0.4
	c0.3,0.3,0.5,0.6,0.5,1c0,0.5-0.3,0.8-0.9,0.8c0.1-0.2,0.1-0.4,0.1-0.6c0-0.7-0.3-1-0.9-1c-0.5,0-1.1,0.3-1.7,0.9s-1.1,1.3-1.5,2.2
	c-0.4,0.8-0.6,1.5-0.6,2.1c0,0.5,0.2,0.7,0.5,0.7c0.2,0,0.5-0.1,0.8-0.3c0.3-0.2,0.6-0.4,0.8-0.7c0.2-0.3,0.5-0.6,0.9-1
	c0.3-0.4,0.6-0.8,0.8-1l0.7-1c0.5,0.1,0.8,0.2,0.8,0.5c0,0.1-0.2,0.5-0.5,1.1c-0.4,0.6-0.5,1.1-0.5,1.5c0,0.2,0.1,0.4,0.2,0.6
	c0.1,0.2,0.3,0.3,0.5,0.3c0.4,0,0.8-0.3,1.4-0.8c0.5-0.5,1.1-1.2,1.6-2.2l0.2,0.2c-0.4,1-0.9,1.8-1.6,2.4c-0.7,0.6-1.4,0.9-2.1,0.9
	c-0.4,0-0.8-0.1-1-0.4c-0.2-0.2-0.3-0.6-0.3-0.9c0-0.1,0-0.3,0.1-0.5c-0.6,0.7-1.1,1.3-1.5,1.6c-0.4,0.3-0.9,0.5-1.3,0.5
	s-0.7-0.1-1-0.4C40.3,40.4,40.1,40,40.1,39.6z"/>
<path d="M48.4,39.2c0-0.7,0.2-1.5,0.8-2.4c0.5-0.9,1.2-1.7,1.9-2.3c0.8-0.7,1.6-1,2.3-1c0.5,0,0.8,0.2,0.8,0.6
	c0,0,0,0.1,0,0.3c-0.1-0.2-0.4-0.3-0.7-0.3c-0.6,0-1.2,0.3-1.8,0.9c-0.6,0.6-1.1,1.3-1.4,2.1c-0.3,0.8-0.5,1.4-0.5,1.9
	c0,0.3,0.1,0.5,0.2,0.6c0.1,0.2,0.3,0.2,0.5,0.2c0.5,0,1.2-0.5,2-1.4c0.8-1,1.5-2.2,2-3.7l0.7-1.9l0.7-1.7c0.3-0.7,0.6-1.3,0.8-1.7
	l0.6-1.3c0.2-0.5,0.5-0.8,0.7-1c0.2-0.2,0.4-0.3,0.5-0.3s0.2,0,0.3,0.1c0.1,0.1,0.1,0.2,0.1,0.3c0,0.2-0.2,0.9-0.7,1.8l-1.5,3
	c-0.5,1.1-1,2.3-1.5,3.6c-0.4,1.3-0.7,2.4-0.7,3.2c0,0.3,0,0.5,0,0.6s0.1,0.2,0.1,0.3c0.1,0.1,0.2,0.1,0.3,0.1
	c0.4,0,0.9-0.3,1.5-0.8s1-1.2,1.4-2l0.2,0.2c-0.4,0.9-0.9,1.7-1.6,2.4c-0.7,0.6-1.4,1-2,1c-0.4,0-0.7-0.1-0.9-0.4
	c-0.2-0.3-0.3-0.6-0.3-1c0-0.4,0.1-1.1,0.4-2c-0.6,1-1.3,1.9-2,2.5c-0.7,0.6-1.3,0.9-1.8,0.9c-0.4,0-0.7-0.1-1-0.4
	C48.6,40.1,48.4,39.7,48.4,39.2z"/>
<path d="M57.2,38.9c0-1.1,0.5-2.3,1.6-3.5c1-1.2,2.1-1.8,3.2-1.8c0.8,0,1.1,0.4,1.1,1.1c0,0.9-0.5,1.7-1.4,2.4
	c-1,0.7-2,1.1-3.1,1.2c0,0.2-0.1,0.4-0.1,0.7c0,1,0.5,1.6,1.5,1.6c0.8,0,1.5-0.3,2.3-0.9c0.8-0.6,1.4-1.4,1.9-2.3l0.2,0.2
	c-0.5,1.1-1.2,2-2.1,2.6c-0.9,0.7-1.8,1-2.7,1c-0.7,0-1.3-0.2-1.7-0.6C57.4,40,57.2,39.5,57.2,38.9z M58.6,37.9
	c0.9-0.3,1.7-0.8,2.5-1.4c0.8-0.6,1.2-1.3,1.2-2c0-0.3-0.1-0.4-0.4-0.4c-0.6,0-1.2,0.4-1.9,1.2C59.3,36.1,58.9,37,58.6,37.9z"/>
<path d="M68.5,38.9c0-0.7,0.2-1.6,0.6-2.6c0.4-1.1,0.7-1.6,1-1.6c0.1,0,0.2,0,0.4,0.1c0.2,0.1,0.3,0.2,0.3,0.3
	c-0.3,0.4-0.5,1-0.8,1.8c-0.3,0.8-0.4,1.4-0.4,2c0,0.8,0.2,1.3,0.6,1.3c0.7,0,1.6-1.2,2.8-3.6c0.2-0.7,0.3-1.2,0.3-1.4
	c0.1-0.2,0.2-0.3,0.4-0.3c0.4,0,0.5,0.1,0.5,0.4c0,0,0,0.1,0,0.2c-0.3,1.1-0.5,2.4-0.5,3.9c0,0.6,0.1,0.9,0.4,0.9
	c0.3,0,0.8-0.4,1.3-1.2c0.6-0.8,1.1-1.7,1.5-2.6c0-1.6,0.3-2.4,0.9-2.4c0.2,0,0.4,0.1,0.5,0.2c0.1,0.2,0.2,0.3,0.2,0.5
	c0,0.1-0.1,0.3-0.2,0.5c-0.1,0.2-0.2,0.5-0.3,0.8c-0.1,0.3-0.2,0.8-0.2,1.2c0,0.9,0.3,1.4,0.9,1.4c0.5,0,1-0.5,1.5-1.4l0.2,0.2
	c-0.4,1.1-1.1,1.6-1.8,1.6c-0.8,0-1.3-0.5-1.6-1.6c-0.5,1-1.1,1.8-1.7,2.4c-0.6,0.7-1.2,1-1.7,1c-0.7,0-1-0.6-1-1.8
	c0-0.4,0-1,0.1-1.7c-1.1,2.2-2.1,3.3-3,3.3l0,0c-0.4,0-0.7-0.2-1-0.5C68.6,39.9,68.5,39.4,68.5,38.9z"/>
<path d="M79.8,39.1c0-0.5,0.1-1.1,0.4-1.9c0.3-0.8,0.6-1.6,1-2.2c0.4-0.7,0.8-1,1.2-1c0.3,0,0.4,0.1,0.4,0.4
	c0,0.1-0.2,0.5-0.5,1c-0.3,0.5-0.6,1.1-1,1.8C81.1,37.9,81,38.4,81,39c0,0.4,0.1,0.7,0.2,0.9c0.1,0.2,0.4,0.2,0.7,0.2
	c1,0,1.9-0.9,2.9-2.8l0.2,0.2c-0.3,1-0.9,1.8-1.5,2.4c-0.7,0.6-1.4,0.9-2.1,0.9c-0.5,0-0.8-0.1-1.1-0.4C80,40.1,79.8,39.6,79.8,39.1
	z M82.7,31.6c0-0.2,0.2-0.5,0.4-0.7c0.3-0.2,0.6-0.3,0.9-0.3c0.4,0,0.6,0.2,0.6,0.6c0,0.2-0.1,0.5-0.4,0.7c-0.3,0.2-0.5,0.3-0.8,0.3
	C83,32.2,82.7,32,82.7,31.6z"/>
<path d="M84.3,39.2c0-1.1,0.4-2.6,1.2-4.7c-0.1,0-0.2-0.1-0.4-0.1c-0.2-0.1-0.3-0.1-0.3-0.1V34c0,0,0.1,0,0.3,0.1
	c0.2,0.1,0.3,0.1,0.5,0.1c0.5-1.4,1.1-2.6,1.7-3.5c0.6-1,1.1-1.4,1.4-1.4c0.1,0,0.2,0,0.3,0.1s0.1,0.2,0.1,0.3c0,0.2-0.1,0.5-0.4,1
	c-0.2,0.5-0.6,1.1-1,1.8c-0.4,0.8-0.8,1.5-1.1,2.1c0.7,0.1,1.3,0.2,1.8,0.2c0.6,0,1.4-0.1,2.4-0.3c0.7-1.9,1.5-3.5,2.4-5.1
	c0.9-1.5,1.6-2.3,2.1-2.3c0.2,0,0.4,0.1,0.5,0.4c0.1,0.2,0.2,0.5,0.2,0.8c0,0.9-0.4,2.1-1.2,3.4c-0.8,1.4-1.8,2.4-2.8,3
	c-0.2,0.5-0.4,1.3-0.6,2.2c-0.2,0.9-0.3,1.6-0.3,2.1c0,0.2,0,0.4,0,0.6c1.1-3.2,2.4-4.8,3.8-4.8c0.5,0,0.8,0.2,1,0.5
	c0.2,0.3,0.3,0.7,0.3,1.2c0,0.4-0.1,1-0.4,1.7c-0.3,0.7-0.4,1.2-0.4,1.5c0,0.5,0.2,0.7,0.6,0.7s0.9-0.3,1.5-0.9s1-1.3,1.4-2.1
	l0.2,0.2c-0.4,0.9-0.9,1.7-1.6,2.3c-0.6,0.6-1.3,0.9-2,0.9c-0.4,0-0.7-0.1-0.9-0.3c-0.2-0.2-0.3-0.5-0.3-0.8c0-0.2,0.1-0.7,0.3-1.4
	c0.2-0.7,0.3-1.1,0.3-1.4c0-0.6-0.2-0.9-0.7-0.9c-0.4,0-0.8,0.3-1.2,0.8s-0.7,1.1-0.9,1.8c-0.2,0.7-0.5,1.2-0.7,1.8
	c-0.3,0.5-0.5,0.8-0.8,0.8c-0.2,0-0.4-0.2-0.5-0.6s-0.2-0.8-0.2-1.4c0-0.2,0-0.5,0.1-0.8c-0.5,0.9-1.1,1.5-1.8,2.1
	c-0.7,0.5-1.4,0.8-2.1,0.8C84.9,41.1,84.3,40.5,84.3,39.2z M85.5,38.9c0,0.5,0.1,0.9,0.2,1.1c0.2,0.2,0.4,0.3,0.8,0.3
	c0.6,0,1.3-0.3,1.9-0.8c0.6-0.6,1.2-1.3,1.7-2.3c0.2-0.8,0.4-1.6,0.6-2.4C90,35,89.2,35,88.4,35c-0.5,0-1.2-0.1-1.9-0.2
	C85.8,36.4,85.5,37.8,85.5,38.9z M92.2,33.8c0.8-0.6,1.5-1.5,2.2-2.7c0.7-1.1,1-2,1-2.5c0-0.1,0-0.1-0.1-0.1c-0.1,0-0.4,0.2-0.7,0.7
	c-0.4,0.5-0.8,1.1-1.2,2C92.8,32,92.5,32.9,92.2,33.8z"/>
<path d="M103.2,38.9c0-1.2,0.4-2.4,1.3-3.4s1.8-1.5,2.8-1.5c0.5,0,0.8,0.1,1,0.4c0.2,0.3,0.3,0.6,0.3,1
	s-0.1,0.7-0.2,1c-0.2,0.3-0.4,0.4-0.7,0.4c-0.2,0-0.4-0.1-0.5-0.3c0.2-0.1,0.3-0.3,0.5-0.6c0.1-0.3,0.2-0.6,0.2-0.9
	s-0.1-0.5-0.4-0.5c-0.6,0-1.3,0.5-2,1.6s-1,2-1,3s0.5,1.5,1.4,1.5c0.8,0,1.5-0.3,2.2-0.9c0.7-0.6,1.3-1.4,1.7-2.4l0.2,0.2
	c-0.4,1.1-1.1,2-1.9,2.8c-0.9,0.7-1.8,1.1-2.7,1.1c-0.6,0-1.1-0.2-1.5-0.6C103.4,40.2,103.2,39.6,103.2,38.9z"/>
<path d="M108.9,39.6c0-0.7,0.3-1.5,0.8-2.4c0.5-0.9,1.2-1.7,2-2.3c0.8-0.6,1.6-1,2.4-1c0.5,0,0.9,0.1,1.2,0.4
	c0.3,0.3,0.5,0.6,0.5,1c0,0.5-0.3,0.8-0.9,0.8c0.1-0.2,0.1-0.4,0.1-0.6c0-0.7-0.3-1-0.9-1c-0.5,0-1.1,0.3-1.7,0.9s-1.1,1.3-1.5,2.2
	c-0.4,0.8-0.6,1.5-0.6,2.1c0,0.5,0.2,0.7,0.5,0.7c0.2,0,0.5-0.1,0.8-0.3c0.3-0.2,0.6-0.4,0.8-0.7c0.2-0.3,0.5-0.6,0.9-1
	c0.3-0.4,0.6-0.8,0.7-1l0.7-1c0.5,0.1,0.8,0.2,0.8,0.5c0,0.1-0.2,0.5-0.5,1.1c-0.4,0.6-0.5,1.1-0.5,1.5c0,0.2,0.1,0.4,0.2,0.6
	c0.1,0.2,0.3,0.3,0.5,0.3c0.4,0,0.8-0.3,1.4-0.8c0.5-0.5,1.1-1.2,1.6-2.2l0.2,0.2c-0.4,1-0.9,1.8-1.6,2.4s-1.4,0.9-2.1,0.9
	c-0.4,0-0.8-0.1-1-0.4c-0.2-0.2-0.3-0.6-0.3-0.9c0-0.1,0-0.3,0.1-0.5c-0.6,0.7-1.1,1.3-1.5,1.6c-0.4,0.3-0.9,0.5-1.3,0.5
	c-0.4,0-0.7-0.1-1-0.4C109,40.4,108.9,40,108.9,39.6z"/>
<path d="M117.5,37.8c0.6-1.1,1.1-2.3,1.5-3.5c-0.1-0.1-0.2-0.3-0.2-0.4c0-0.3,0.1-0.6,0.3-0.9
	c0.2-0.3,0.4-0.4,0.5-0.4c0.2,0,0.3,0.1,0.3,0.4c0,0,0,0.2-0.1,0.4c0,0.2-0.1,0.3-0.1,0.3c0,0.1,0.1,0.3,0.3,0.5
	c0.2,0.2,0.4,0.3,0.6,0.5c0.2,0.1,0.5,0.4,0.7,0.7c0.2,0.3,0.3,0.6,0.3,1s-0.2,1-0.5,1.7c-0.3,0.7-0.5,1.2-0.5,1.4
	c0,0.4,0.2,0.6,0.6,0.6c0.5,0,1.1-0.3,1.8-0.9c0.7-0.6,1.1-1.2,1.4-1.8l0.2,0.2c-0.4,0.9-0.9,1.6-1.7,2.3c-0.7,0.7-1.5,1-2.2,1
	c-0.4,0-0.8-0.1-1-0.3c-0.2-0.2-0.4-0.5-0.4-0.9c0-0.4,0.2-1,0.5-1.8c0.3-0.8,0.5-1.4,0.5-1.7c0-0.1,0-0.2-0.1-0.4
	c0-0.1-0.1-0.2-0.1-0.3s-0.1-0.1-0.2-0.2l-0.2-0.2c0,0-0.1-0.1-0.2-0.2s-0.2-0.1-0.2-0.2c-0.6,1.5-1.2,2.7-1.7,3.6L117.5,37.8z"/>
<path d="M123.6,38.9c0-1.1,0.5-2.3,1.6-3.5c1-1.2,2.1-1.8,3.2-1.8c0.8,0,1.1,0.4,1.1,1.1c0,0.9-0.5,1.7-1.4,2.4
	c-1,0.7-2,1.1-3.1,1.2c0,0.2-0.1,0.4-0.1,0.7c0,1,0.5,1.6,1.5,1.6c0.8,0,1.5-0.3,2.3-0.9c0.8-0.6,1.4-1.4,1.9-2.3l0.2,0.2
	c-0.5,1.1-1.2,2-2.1,2.6c-0.9,0.7-1.8,1-2.7,1c-0.7,0-1.3-0.2-1.7-0.6C123.8,40,123.6,39.5,123.6,38.9z M125,37.9
	c0.9-0.3,1.7-0.8,2.5-1.4s1.2-1.3,1.2-2c0-0.3-0.1-0.4-0.4-0.4c-0.6,0-1.2,0.4-1.9,1.2C125.7,36.1,125.2,37,125,37.9z"/>
<path d="M134.4,39.6c0-0.7,0.3-1.5,0.8-2.4c0.5-0.9,1.2-1.7,2-2.3s1.6-1,2.4-1c0.5,0,0.9,0.1,1.2,0.4
	c0.3,0.3,0.5,0.6,0.5,1c0,0.5-0.3,0.8-0.9,0.8c0.1-0.2,0.1-0.4,0.1-0.6c0-0.7-0.3-1-0.9-1c-0.5,0-1.1,0.3-1.7,0.9
	c-0.6,0.6-1.1,1.3-1.5,2.2c-0.4,0.9-0.6,1.5-0.6,2.1c0,0.5,0.2,0.7,0.5,0.7c0.2,0,0.5-0.1,0.8-0.3c0.3-0.2,0.6-0.4,0.8-0.7
	c0.2-0.3,0.5-0.6,0.9-1c0.3-0.4,0.6-0.8,0.7-1l0.7-1c0.5,0.1,0.8,0.2,0.8,0.5c0,0.1-0.2,0.5-0.5,1.1c-0.4,0.6-0.5,1.1-0.5,1.5
	c0,0.2,0.1,0.4,0.2,0.6c0.1,0.2,0.3,0.3,0.5,0.3c0.4,0,0.8-0.3,1.4-0.8c0.5-0.5,1.1-1.2,1.6-2.2l0.2,0.2c-0.4,1-0.9,1.8-1.6,2.4
	s-1.4,0.9-2.1,0.9c-0.4,0-0.8-0.1-1-0.4s-0.3-0.6-0.3-0.9c0-0.1,0-0.3,0.1-0.5c-0.6,0.7-1.1,1.3-1.5,1.6c-0.4,0.3-0.9,0.5-1.3,0.5
	c-0.4,0-0.7-0.1-1-0.4C134.5,40.4,134.4,40,134.4,39.6z"/>
<path d="M142.2,40.1c0,0,0.1-0.3,0.3-0.9c0.2-0.5,0.4-1.2,0.7-1.9c0.2-0.7,0.3-1.3,0.3-1.8c0.2-0.3,0.5-0.4,0.9-0.4
	c0.4,0,0.5,0.2,0.5,0.5c0,0.4-0.2,1.2-0.6,2.4c1.4-2.2,2.7-3.3,3.9-3.3c0.4,0,0.8,0.2,1,0.5c0.2,0.3,0.3,0.7,0.3,1.2
	c0,0.4-0.1,0.9-0.4,1.6c-0.3,0.7-0.4,1.1-0.4,1.4c0,0.5,0.2,0.7,0.5,0.7c0.8,0,1.6-1,2.6-2.9l0.2,0.2c-0.9,2.1-2,3.1-3.2,3.1
	c-0.4,0-0.7-0.1-1-0.3c-0.2-0.2-0.3-0.5-0.3-0.9c0-0.2,0.1-0.7,0.3-1.3s0.3-1,0.3-1.3c0-0.6-0.2-0.9-0.7-0.9c-0.3,0-0.6,0.1-1,0.4
	c-0.3,0.2-0.6,0.5-0.9,0.8s-0.6,0.7-0.9,1.2c-0.4,0.5-0.6,0.9-0.8,1.2l-0.7,1.1C142.8,40.5,142.4,40.4,142.2,40.1z"/>
<path d="M151.3,39.2c0-0.7,0.3-1.5,0.8-2.4c0.5-0.9,1.2-1.7,1.9-2.3c0.8-0.7,1.6-1,2.3-1c0.5,0,0.8,0.2,0.8,0.6
	c0,0,0,0.1,0,0.3c-0.1-0.2-0.4-0.3-0.7-0.3c-0.6,0-1.2,0.3-1.8,0.9c-0.6,0.6-1.1,1.3-1.4,2.1c-0.3,0.8-0.5,1.4-0.5,1.9
	c0,0.3,0.1,0.5,0.2,0.6c0.1,0.2,0.3,0.2,0.5,0.2c0.5,0,1.2-0.5,2-1.4c0.8-1,1.5-2.2,2-3.7l0.7-1.9l0.7-1.7c0.3-0.7,0.6-1.3,0.8-1.7
	l0.7-1.3c0.2-0.5,0.5-0.8,0.7-1c0.2-0.2,0.4-0.3,0.5-0.3s0.2,0,0.3,0.1c0.1,0.1,0.1,0.2,0.1,0.3c0,0.2-0.2,0.9-0.7,1.8l-1.5,3
	c-0.5,1.1-1,2.3-1.5,3.6c-0.4,1.3-0.7,2.4-0.7,3.2c0,0.3,0,0.5,0,0.6s0,0.2,0.1,0.3c0.1,0.1,0.2,0.1,0.3,0.1c0.4,0,0.9-0.3,1.5-0.8
	c0.6-0.5,1-1.2,1.4-2l0.2,0.2c-0.4,0.9-0.9,1.7-1.6,2.4c-0.7,0.6-1.4,1-2,1c-0.4,0-0.7-0.1-0.9-0.4c-0.2-0.3-0.3-0.6-0.3-1
	c0-0.4,0.1-1.1,0.4-2c-0.6,1-1.3,1.9-2,2.5c-0.7,0.6-1.3,0.9-1.8,0.9c-0.4,0-0.7-0.1-1-0.4C151.4,40.1,151.3,39.7,151.3,39.2z"/>
</g>
<g fill="#b00" filter="url(#dropshadow)">
<path d="M40,51.9c-0.1-0.7-0.3-1.3-0.7-1.8c-0.5-0.7-1.4-1.1-2.5-1.1c-1.6,0-2.7,0.8-3.3,2.4
	c-0.3,0.8-0.5,2-0.5,3.4c0,1.3,0.2,2.4,0.5,3.2c0.6,1.5,1.6,2.3,3.2,2.3c1.1,0,1.9-0.3,2.4-0.9c0.5-0.6,0.8-1.4,0.9-2.3h4.9
	c-0.1,1.4-0.6,2.8-1.6,4.1c-1.5,2.1-3.7,3.1-6.6,3.1c-2.9,0-5.1-0.9-6.5-2.6c-1.4-1.7-2.1-4-2.1-6.7c0-3.1,0.8-5.5,2.3-7.3
	c1.5-1.7,3.6-2.6,6.3-2.6c2.3,0,4.2,0.5,5.6,1.5c1.5,1,2.3,2.8,2.6,5.4L40,51.9L40,51.9z"/>
<path d="M60,45.5c0.9,0.4,1.7,1,2.3,1.8c0.5,0.7,0.8,1.4,0.9,2.1c0.1,0.7,0.2,1.9,0.2,3.5v10.7h-4.9V52.5
	c0-1-0.2-1.8-0.5-2.4c-0.4-0.8-1.2-1.3-2.4-1.3c-1.2,0-2.2,0.4-2.8,1.3c-0.6,0.8-1,2-1,3.6v9.9H47V39.1h4.8v8.7
	c0.7-1.1,1.5-1.8,2.4-2.2c0.9-0.4,1.9-0.6,2.8-0.6C58.1,44.9,59.1,45.1,60,45.5z"/>
<path d="M73.8,52.5c0.9-0.1,1.5-0.3,1.9-0.4c0.7-0.3,1-0.7,1-1.4s-0.3-1.3-0.8-1.5c-0.5-0.3-1.3-0.4-2.3-0.4
	c-1.1,0-1.9,0.3-2.4,0.8c-0.3,0.4-0.6,1-0.7,1.7H66c0.1-1.6,0.5-2.9,1.3-3.9c1.3-1.6,3.4-2.4,6.5-2.4c2,0,3.8,0.4,5.3,1.2
	c1.6,0.8,2.3,2.3,2.3,4.5V59c0,0.6,0,1.3,0,2.1c0,0.6,0.1,1,0.3,1.3c0.2,0.2,0.4,0.4,0.7,0.6v0.7h-5.2c-0.1-0.4-0.2-0.7-0.3-1
	s-0.1-0.7-0.1-1.1c-0.7,0.7-1.4,1.3-2.3,1.8c-1,0.6-2.2,0.9-3.5,0.9c-1.7,0-3-0.5-4.1-1.4c-1.1-0.9-1.6-2.3-1.6-4
	c0-2.2,0.9-3.9,2.6-4.9c1-0.5,2.4-0.9,4.2-1.2L73.8,52.5z M76.8,54.8c-0.3,0.2-0.6,0.3-0.9,0.5c-0.3,0.1-0.7,0.2-1.3,0.3l-1.1,0.2
	c-1,0.2-1.7,0.4-2.2,0.7c-0.7,0.4-1.1,1.1-1.1,2c0,0.8,0.2,1.4,0.7,1.8c0.5,0.4,1,0.5,1.7,0.5c1,0,2-0.3,2.9-0.9
	c0.9-0.6,1.3-1.7,1.4-3.3v-1.8H76.8z"/>
<path d="M89.4,43.2h-4.8v-4.4h4.8V43.2z M84.6,45.4h4.8v18.2h-4.8V45.4z"/>
<path d="M107.2,46.5c1.2,1,1.8,2.6,1.8,4.9v12.2h-4.9V52.5c0-1-0.1-1.7-0.4-2.2c-0.5-0.9-1.3-1.4-2.6-1.4
	c-1.6,0-2.7,0.7-3.3,2.1c-0.3,0.7-0.5,1.6-0.5,2.8v9.8h-4.8V45.5h4.6v2.7c0.6-0.9,1.2-1.6,1.7-2c1-0.7,2.2-1.1,3.7-1.1
	C104.5,45,106,45.5,107.2,46.5z"/>
<path d="M122.7,45.4h5.1l-6.6,18.2h-5l-6.5-18.2h5.3l3.8,13.4L122.7,45.4z"/>
<path d="M135.9,52.5c0.9-0.1,1.5-0.3,1.9-0.4c0.7-0.3,1-0.7,1-1.4s-0.3-1.3-0.8-1.5c-0.5-0.3-1.3-0.4-2.3-0.4
	c-1.1,0-1.9,0.3-2.4,0.8c-0.3,0.4-0.6,1-0.7,1.7H128c0.1-1.6,0.5-2.9,1.3-3.9c1.3-1.6,3.4-2.4,6.5-2.4c2,0,3.8,0.4,5.3,1.2
	c1.6,0.8,2.3,2.3,2.3,4.5V59c0,0.6,0,1.3,0,2.1c0,0.6,0.1,1,0.3,1.3c0.2,0.2,0.4,0.4,0.7,0.6v0.7h-5.2c-0.1-0.4-0.2-0.7-0.3-1
	c-0.1-0.3-0.1-0.7-0.1-1.1c-0.7,0.7-1.4,1.3-2.3,1.8c-1,0.6-2.2,0.9-3.5,0.9c-1.7,0-3-0.5-4.1-1.4c-1.1-0.9-1.6-2.3-1.6-4
	c0-2.2,0.9-3.9,2.6-4.9c1-0.5,2.4-0.9,4.2-1.2L135.9,52.5z M138.8,54.8c-0.3,0.2-0.6,0.3-0.9,0.5c-0.3,0.1-0.7,0.2-1.3,0.3
	l-1.1,0.2c-1,0.2-1.7,0.4-2.2,0.7c-0.7,0.4-1.1,1.1-1.1,2c0,0.8,0.2,1.4,0.7,1.8c0.5,0.4,1,0.5,1.7,0.5c1,0,2-0.3,2.9-0.9
	c0.9-0.6,1.3-1.7,1.4-3.3v-1.8H138.8z"/>
<path d="M150.2,57.8c0.1,0.8,0.3,1.4,0.7,1.8c0.6,0.6,1.7,1,3.3,1c0.9,0,1.7-0.1,2.2-0.4c0.6-0.3,0.8-0.7,0.8-1.3
	c0-0.5-0.2-0.9-0.7-1.2c-0.4-0.3-2.1-0.8-5-1.4c-2.1-0.5-3.5-1.2-4.4-1.9c-0.8-0.8-1.3-1.8-1.3-3.3c0-1.7,0.7-3.1,2-4.3
	c1.3-1.2,3.2-1.8,5.6-1.8c2.3,0,4.1,0.5,5.6,1.4c1.4,0.9,2.3,2.5,2.5,4.7h-4.8c-0.1-0.6-0.2-1.1-0.5-1.5c-0.5-0.6-1.4-1-2.7-1
	c-1,0-1.8,0.2-2.2,0.5c-0.4,0.3-0.7,0.7-0.7,1.1c0,0.5,0.2,0.9,0.7,1.2c0.5,0.3,2.1,0.7,5,1.3c1.9,0.4,3.3,1.1,4.3,2
	c0.9,0.9,1.4,2.1,1.4,3.4c0,1.8-0.7,3.3-2,4.4s-3.4,1.7-6.2,1.7c-2.9,0-5-0.6-6.3-1.8c-1.4-1.2-2-2.7-2-4.6H150.2z"/>
</g>
</svg>
